<svg width="30" height="31" viewBox="0 0 30 31" fill="none" xmlns="http://www.w3.org/2000/svg">
<path d="M1.93554 2.3282H5.02614L9.4285 19.5181C9.55426 20.0226 9.9855 20.3718 10.4707 20.3718H24.0011C24.4323 20.3718 24.8097 20.1001 24.9894 19.6733L29.9128 7.45025C30.0565 7.08164 30.0206 6.67421 29.8229 6.34436C29.6252 6.0145 29.2838 5.82051 28.9244 5.82051H13.9746C13.3816 5.82051 12.8964 6.34436 12.8964 6.98461C12.8964 7.62487 13.3816 8.14872 13.9746 8.14872H27.2714L23.2824 18.0436H11.2793L6.87696 0.853698C6.7512 0.349231 6.31995 0 5.8348 0H1.93554C1.34258 0 0.857422 0.523846 0.857422 1.1641C0.857422 1.80436 1.34258 2.3282 1.93554 2.3282Z" fill="white"/>
<path d="M8.87488 30.0131C10.2225 30.0131 11.3186 28.8296 11.3186 27.3745C11.3186 25.9194 10.2225 24.7359 8.87488 24.7359C7.52722 24.7359 6.43115 25.9193 6.43115 27.3744C6.43115 28.8296 7.52722 30.0131 8.87488 30.0131Z" fill="white"/>
<path d="M24.1486 30.0132C24.2025 30.0132 24.2744 30.0132 24.3283 30.0132C24.9752 29.955 25.5681 29.6446 25.9994 29.1013C26.4306 28.5774 26.6283 27.8983 26.5924 27.1805C26.5025 25.7447 25.3346 24.6388 23.9869 24.7359C22.6393 24.8329 21.633 26.1134 21.7229 27.5491C21.8127 28.9266 22.8728 30.0132 24.1486 30.0132Z" fill="white"/>
</svg>
