<svg width="44" height="44" viewBox="0 0 44 44" fill="none" xmlns="http://www.w3.org/2000/svg">
<path d="M33 1.29956C28.4172 1.29956 24.9494 3.9891 22 6.79956C19.1895 3.81719 15.5829 1.29956 11 1.29956C4.54573 1.29956 0 6.84902 0 12.9005C0 16.1468 1.32963 18.4857 2.78573 20.6816L19.8811 41.1773C21.8006 43.2082 22.1623 43.2082 24.0817 41.1773L41.2156 20.6816C42.9275 18.4857 44 16.1468 44 12.9005C44 6.8491 39.4542 1.29956 33 1.29956ZM38.5 20.1124L22 39.7996L5.5 20.0312C3.5269 17.2881 2.75 15.4374 2.75 12.9005C2.75 8.17319 6.12563 3.91756 11 3.87766C15.0095 3.84466 19.5539 7.93939 22 11.0263C24.3815 8.04666 28.9905 3.87766 33 3.87766C37.7451 3.87766 41.25 8.17319 41.25 12.9005C41.25 15.4374 40.6354 17.4256 38.5 20.1124Z" fill="white"/>
</svg>
