<svg width="35" height="31" viewBox="0 0 35 31" fill="none" xmlns="http://www.w3.org/2000/svg">
<path d="M25.8575 0C22.346 0 19.6888 1.94975 17.4289 3.98717C15.2754 1.82513 12.5119 0 9.00035 0C4.05487 0 0.571777 4.02302 0.571777 8.40995C0.571777 10.7634 1.59059 12.4589 2.7063 14.0508L15.8053 28.9089C17.2762 30.3812 17.5533 30.3812 19.024 28.9089L32.1525 14.0508C33.4642 12.4589 34.2861 10.7634 34.2861 8.40995C34.2861 4.02308 30.8029 0 25.8575 0ZM30.0718 13.6381L17.4289 27.9102L4.78606 13.5793C3.27421 11.5907 2.67892 10.249 2.67892 8.40995C2.67892 4.98297 5.26545 1.89789 9.00035 1.86896C12.0726 1.84504 15.5546 4.81347 17.4289 7.05129C19.2537 4.89124 22.7852 1.86896 25.8575 1.86896C29.4933 1.86896 32.1789 4.98297 32.1789 8.40995C32.1789 10.249 31.708 11.6904 30.0718 13.6381Z" fill="white"/>
</svg>
