<svg width="181" height="56" viewBox="0 0 181 56" fill="none" xmlns="http://www.w3.org/2000/svg">
<path d="M164.834 24.3113C164.834 25.6419 165.15 26.8286 165.78 27.8715C166.446 28.8784 167.252 29.7595 168.198 30.5147C169.178 31.2699 170.492 32.169 172.139 33.2118C173.925 34.3626 175.327 35.3516 176.343 36.1787C177.394 37.0058 178.269 38.0307 178.97 39.2534C179.706 40.4402 180.074 41.8427 180.074 43.461C180.074 45.295 179.601 46.9313 178.655 48.3698C177.744 49.8082 176.43 50.941 174.714 51.7682C173.032 52.5593 171.105 52.9549 168.933 52.9549C167.462 52.9549 165.938 52.7571 164.362 52.3615C162.82 51.9659 161.647 51.4805 160.841 50.9051C160.525 50.6893 160.35 50.3477 160.315 49.8802L160 41.6809V41.6269C160 41.4831 160.088 41.4111 160.263 41.4111C160.438 41.3752 160.543 41.4291 160.578 41.573C161.734 44.5578 163.048 47.0032 164.519 48.9092C166.026 50.8152 167.935 51.7682 170.247 51.7682C171.753 51.7682 173.015 51.3546 174.03 50.5275C175.046 49.6644 175.554 48.2439 175.554 46.266C175.554 44.6837 175.204 43.2991 174.503 42.1124C173.838 40.9257 172.997 39.9367 171.981 39.1455C171 38.3544 169.651 37.3834 167.935 36.2326C166.253 35.1178 164.94 34.1828 163.994 33.4276C163.048 32.6365 162.242 31.6835 161.576 30.5687C160.911 29.4179 160.578 28.0873 160.578 26.5769C160.578 24.7069 161.086 23.1246 162.102 21.8299C163.118 20.5353 164.432 19.5823 166.043 18.971C167.69 18.3236 169.406 18 171.193 18C172.384 18 173.575 18.1259 174.766 18.3776C175.957 18.5934 176.956 18.8811 177.761 19.2407C178.077 19.3486 178.287 19.4924 178.392 19.6722C178.497 19.8161 178.55 20.0139 178.55 20.2656L178.707 27.6018C178.707 27.7097 178.602 27.7996 178.392 27.8715C178.217 27.9075 178.112 27.8535 178.077 27.7097C177.376 25.516 176.43 23.5381 175.239 21.776C174.083 19.9779 172.331 19.0788 169.984 19.0788C168.408 19.0788 167.147 19.5463 166.201 20.4814C165.29 21.4164 164.834 22.693 164.834 24.3113Z" fill="#8D8F4E"/>
<path d="M149.301 48.3449C149.301 49.4597 149.389 50.2688 149.564 50.7723C149.739 51.2758 150.089 51.6174 150.615 51.7972C151.175 51.977 152.051 52.0669 153.242 52.0669C153.347 52.0669 153.4 52.1748 153.4 52.3906C153.4 52.6064 153.347 52.7142 153.242 52.7142C152.121 52.7142 151.228 52.6963 150.562 52.6603L146.674 52.6064L142.89 52.6603C142.225 52.6963 141.314 52.7142 140.158 52.7142C140.053 52.7142 140 52.6064 140 52.3906C140 52.1748 140.053 52.0669 140.158 52.0669C141.349 52.0669 142.207 51.977 142.733 51.7972C143.293 51.6174 143.678 51.2758 143.889 50.7723C143.889 51.8512 144.099 50.2329 143.889 50.7723V25.7968C143.889 24.718 144.099 21.4994 143.889 20.9959C143.678 20.4924 143.293 20.1508 142.733 19.971C142.207 19.7552 141.349 19.6473 140.158 19.6473C140.053 19.6473 140 19.5394 140 19.3237C140 19.1079 140.053 19 140.158 19L142.89 19.054C144.432 19.1259 145.693 19.1618 146.674 19.1618C147.76 19.1618 149.073 19.1259 150.615 19.054L153.242 19C153.347 19 153.4 19.1079 153.4 19.3237C153.4 19.5394 153.347 19.6473 153.242 19.6473C152.086 19.6473 151.228 19.7552 150.667 19.971C150.142 20.1868 149.774 20.5644 149.564 21.1038C149.389 21.6072 149.301 22.3984 149.301 23.4773V48.3449Z" fill="#8D8F4E"/>
<path d="M117.834 24.3113C117.834 25.6419 118.15 26.8286 118.78 27.8715C119.446 28.8784 120.252 29.7595 121.198 30.5147C122.178 31.2699 123.492 32.169 125.139 33.2118C126.925 34.3626 128.327 35.3516 129.343 36.1787C130.394 37.0058 131.269 38.0307 131.97 39.2534C132.706 40.4402 133.074 41.8427 133.074 43.461C133.074 45.295 132.601 46.9313 131.655 48.3698C130.744 49.8082 129.43 50.941 127.714 51.7682C126.032 52.5593 124.105 52.9549 121.933 52.9549C120.462 52.9549 118.938 52.7571 117.362 52.3615C115.82 51.9659 114.647 51.4805 113.841 50.9051C113.525 50.6893 113.35 50.3477 113.315 49.8802L113 41.6809V41.6269C113 41.4831 113.088 41.4111 113.263 41.4111C113.438 41.3752 113.543 41.4291 113.578 41.573C114.734 44.5578 116.048 47.0032 117.519 48.9092C119.026 50.8152 120.935 51.7682 123.247 51.7682C124.753 51.7682 126.015 51.3546 127.03 50.5275C128.046 49.6644 128.554 48.2439 128.554 46.266C128.554 44.6837 128.204 43.2991 127.503 42.1124C126.838 40.9257 125.997 39.9367 124.981 39.1455C124 38.3544 122.651 37.3834 120.935 36.2326C119.253 35.1178 117.94 34.1828 116.994 33.4276C116.048 32.6365 115.242 31.6835 114.576 30.5687C113.911 29.4179 113.578 28.0873 113.578 26.5769C113.578 24.7069 114.086 23.1246 115.102 21.8299C116.118 20.5353 117.432 19.5823 119.043 18.971C120.69 18.3236 122.406 18 124.193 18C125.384 18 126.575 18.1259 127.766 18.3776C128.957 18.5934 129.956 18.8811 130.761 19.2407C131.077 19.3486 131.287 19.4924 131.392 19.6722C131.497 19.8161 131.55 20.0139 131.55 20.2656L131.707 27.6018C131.707 27.7097 131.602 27.7996 131.392 27.8715C131.217 27.9075 131.112 27.8535 131.077 27.7097C130.376 25.516 129.43 23.5381 128.239 21.776C127.083 19.9779 125.331 19.0788 122.984 19.0788C121.408 19.0788 120.147 19.5463 119.201 20.4814C118.29 21.4164 117.834 22.693 117.834 24.3113Z" fill="#8D8F4E"/>
<path d="M105.73 51.5524C105.905 51.5524 105.993 51.6603 105.993 51.876C105.993 52.0918 105.905 52.1997 105.73 52.1997C105.064 52.1997 103.996 52.1637 102.524 52.0918C101.053 52.0199 99.9845 51.9839 99.3189 51.9839C98.4431 51.9839 97.4096 52.0199 96.2185 52.0918C95.0275 52.1637 94.0991 52.1997 93.4335 52.1997C93.2933 52.1997 93.2233 52.0918 93.2233 51.876C93.2233 51.6603 93.2933 51.5524 93.4335 51.5524C94.4494 51.5524 95.1851 51.4445 95.6405 51.2287C96.131 50.977 96.3762 50.5814 96.3762 50.042C96.3762 49.5026 96.0784 48.5855 95.4829 47.2909L89.8076 35.4774H80.2963L76.2501 44.8095C75.7947 45.8884 75.567 46.8594 75.567 47.7224C75.567 48.9811 76.0049 49.9341 76.8807 50.5814C77.7565 51.2287 78.9826 51.5524 80.5591 51.5524C80.7343 51.5524 80.8218 51.6603 80.8218 51.876C80.8218 52.0918 80.7343 52.1997 80.5591 52.1997C79.9285 52.1997 79.0177 52.1637 77.8266 52.0918C76.4953 52.0199 75.3393 51.9839 74.3584 51.9839C73.4125 51.9839 72.309 52.0199 71.0478 52.0918C69.9268 52.1637 68.9984 52.1997 68.2627 52.1997C68.0876 52.1997 68 52.0918 68 51.876C68 51.6603 68.0876 51.5524 68.2627 51.5524C69.2436 51.5524 70.0669 51.3546 70.7325 50.959C71.3981 50.5634 72.0462 49.8622 72.6768 48.8552C73.3074 47.8124 74.0606 46.284 74.9364 44.2701L86.2343 18.1618C86.3044 18.0539 86.462 18 86.7073 18C86.9525 18 87.0926 18.0539 87.1277 18.1618L100.002 44.8095C101.228 47.3988 102.244 49.1789 103.05 50.1499C103.891 51.0849 104.784 51.5524 105.73 51.5524ZM80.8744 34.1289H89.177L84.8155 25.0665L80.8744 34.1289Z" fill="#8D8F4E"/>
<path d="M42.3483 52.9549C39.0903 52.9549 36.1826 52.1817 33.6253 50.6354C31.1029 49.053 29.1411 46.9313 27.7398 44.2701C26.3736 41.573 25.6904 38.6421 25.6904 35.4774C25.6904 31.7734 26.6013 28.6087 28.423 25.9835C30.2446 23.3223 32.5743 21.3265 35.4119 19.9959C38.2846 18.6653 41.2098 18 44.1875 18C47.5156 18 50.4408 18.8091 52.9631 20.4274C55.4854 22.0097 57.4122 24.1135 58.7434 26.7387C60.1097 29.3639 60.7928 32.151 60.7928 35.0998C60.7928 38.3724 59.9521 41.3752 58.2705 44.1083C56.589 46.8414 54.3294 48.9991 51.4918 50.5814C48.6892 52.1637 45.6413 52.9549 42.3483 52.9549ZM44.135 51.6603C46.2369 51.6603 48.1111 51.0849 49.7577 49.9341C51.4392 48.7474 52.7529 47.0212 53.6988 44.7556C54.6797 42.49 55.1701 39.7929 55.1701 36.6642C55.1701 33.3557 54.6271 30.3888 53.5411 27.7636C52.4902 25.1384 50.9663 23.0886 48.9694 21.6142C47.0076 20.1397 44.6955 19.4025 42.033 19.4025C38.6349 19.4025 35.9899 20.6612 34.0982 23.1785C32.2415 25.6599 31.3131 29.1122 31.3131 33.5355C31.3131 36.9519 31.8561 40.0446 32.9421 42.8137C34.0632 45.5827 35.5871 47.7584 37.5138 49.3407C39.4757 50.8871 41.6827 51.6603 44.135 51.6603Z" fill="#8D8F4E"/>
<path fill-rule="evenodd" clip-rule="evenodd" d="M47.8465 17.2504L46.2278 17.1769L44.8729 17.2787L43.3848 17.5385L41.747 17.9228L42.5429 19.1633L43.5714 21.0244L44.3229 22.7159L44.8222 25.056L45.046 27.3906L44.6512 29.0115L43.6949 28.0454L42.2584 26.1723L40.4219 24.29L39.8482 23.8615L39.7427 28.1372L39.5255 29.6239L38.7643 31.5818L38.1027 32.5578L37.189 33.2695L36.8165 31.1163L36.3173 28.6559L35.552 26.3328L34.6677 24.4926L33.7899 22.8165L32.5058 20.9709L31.9798 20.6382L31.3685 20.6104L30.6369 22.3288L29.7708 24.7507L28.9109 27.3361L28.3184 29.7714L27.3628 33.5066L27.3625 33.5077L26.7689 35.942L26.7683 35.9447L26.0693 39.1943L25.6261 41.9594L25.5401 43.7596L25.2849 47.5252L25.1848 52.3799L22.3293 52.0792L21.7887 51.5837L20.8717 52.1826L19.7358 51.9605L18.7008 51.3908L18.6201 49.1974L18.2443 46.3938L17.7251 43.4152L17.725 43.4142L16.8714 38.7768L16.871 38.775L16.2045 35.4689L15.1512 32.7786L14.2352 30.1143L13.1421 28.162L11.4555 28.7354L10.2526 29.3277L9.05105 29.9145L7.96388 30.6905L6.91881 31.7846L5.6827 33.3317L5.31867 31.9907L5.26921 30.6528L5.48432 29.0007L5.98151 27.53L6.58646 26.236L7.50464 24.953L8.43241 23.9953L9.00122 23.4826L7.92219 23.148L6.51145 22.7635L5.04501 22.5258L3.96089 22.4763L2.7679 22.6101L2.89197 21.6462L3.28211 20.8272L4.20426 19.5287L5.38498 18.7601L6.33467 18.3052L7.29213 18.0161L8.09046 17.9146L7.35423 17.0348L6.38534 16.3427L5.41101 15.8064L4.48383 15.2199L5.06873 14.3173L6.30382 13.7013L7.54207 13.4239L8.92888 13.4869L10.4619 13.8886L11.9966 14.6175L13.3226 15.149L14.1947 13.7615L15.1182 12.6435L16.1916 11.6927L17.284 11.2414L18.6391 10.9385L18.3885 12.3892L17.914 14.3377L17.5939 16.774L17.6265 17.6617L19.1995 17.7332L20.5865 18.127L21.9756 18.5199L23.6601 19.2606L24.6529 20.1469L25.1471 21.0526L24.7097 21.9336L23.4875 22.3822L22.1431 22.9783L21.0922 23.4116L20.6228 24.2954L21.4536 25.5926L22.3178 26.6221L23.2141 28.4692L23.876 30.6036L22.3744 30.5354L21.2454 30.0037L19.573 29.1063L17.9194 28.361L16.8564 28.3128L16.1355 28.5897L16.728 30.5005L16.7286 30.5025L17.4955 32.8133L18.247 34.6737L19.0145 36.8508L19.6489 39.1875L20.1516 41.6812L20.6556 44.4971L21.1765 47.3155L21.5233 49.2906L21.6395 49.5547L21.6128 48.8287L21.805 46.5317L21.8051 46.5306L21.9853 44.0747L21.9854 44.0737L22.1752 41.7787L22.6108 38.6681L23.325 35.7351L24.0569 33.2987L24.9057 30.8723L25.7746 27.9501L26.9102 25.3668L26.9103 25.3666L28.5515 21.6581L29.8016 19.3087L28.999 18.3497L27.2064 17.2951L24.8796 16.7002L22.7064 16.6015L20.7037 17.0307L20.7573 16.397L21.2053 15.0709L22.1564 14.0991L23.933 13.5145L25.8416 13.1048L27.4193 13.1764L26.1664 11.8158L24.6443 11.0928L22.9396 9.8517L22.2786 8.88175L24.1325 8.2643L25.6553 8.00191L27.449 8.08338L29.8071 8.52149L31.0903 9.18522L31.0415 7.85949L30.7074 6.21276L30.3935 5.04898L30.0364 3.42398L31.8189 3.6826L33.6652 4.93211L34.9563 6.31801L36.124 8.02989L37.0285 10.367L37.9964 11.5243L39.4774 11.7525L41.539 12.0107L43.4834 12.4304L45.3165 13.5091L46.5993 14.565L47.3379 15.6078L47.8465 17.2504ZM47.1904 15.6941L46.4856 14.6992L45.2331 13.6681L43.4347 12.6098L41.5219 12.1969L39.4637 11.9391L37.9205 11.7014L36.8882 10.4671L35.98 8.12046L34.8341 6.44048L33.5674 5.08077L31.7695 3.86405L30.2549 3.6443L30.5545 5.00718L30.8688 6.17263L31.2078 7.84325L31.2681 9.48044L29.7648 8.70291L27.4399 8.27097L25.6726 8.1907L24.1764 8.44852L22.5567 8.98797L23.0514 9.71398L24.7171 10.9267L26.2553 11.6574L27.8452 13.3838L25.8619 13.2937L23.9795 13.6979L22.2452 14.2685L21.3484 15.1847L20.9216 16.4484L20.8921 16.7971L22.6861 16.4125L24.8938 16.5128L27.2579 17.1172L29.0973 18.1994L30.0102 19.2903L28.699 21.7546L27.0606 25.4567L27.0605 25.4569L25.9299 28.0291L25.063 30.9442L24.2142 33.3708L23.485 35.798L22.7745 38.7162L22.3411 41.811L22.1518 44.0991L22.1517 44.1001L21.9714 46.5572L21.7802 48.8427L21.8224 49.9886L21.6644 50.0265L21.3639 49.3441L21.0128 47.3443L21.0126 47.3434L20.4921 44.5269L20.492 44.5263L19.9884 41.7121L19.9879 41.7098L19.4875 39.2276L18.8571 36.9055L18.0937 34.7403L17.3415 32.8781L16.5718 30.5589L16.5712 30.5569L15.9238 28.4693L16.8244 28.1233L17.9473 28.1743L19.6337 28.9344L21.3074 29.8324L22.4037 30.3487L23.6401 30.4049L23.0614 28.5389L22.1831 26.729L21.3266 25.7087L20.4229 24.2975L20.9761 23.2559L22.0774 22.8019L22.0792 22.8011L23.4243 22.2046L24.5927 21.7757L24.9534 21.0493L24.5283 20.2701L23.5812 19.4247L21.9317 18.6993L20.5532 18.3094L19.1833 17.9204L17.4663 17.8424L17.4263 16.7551L17.7502 14.2905L18.2256 12.338L18.4257 11.1798L17.3363 11.4233L16.2792 11.8601L15.2348 12.7852L14.3266 13.8847L13.3911 15.3731L11.9427 14.7926L10.4172 14.068L8.91424 13.6743L7.56306 13.6129L6.36136 13.8821L5.18072 14.471L4.73101 15.1649L5.48297 15.6406L6.46156 16.1792L7.45772 16.8908L8.43696 18.061L7.33083 18.2016L6.39592 18.4839L5.46538 18.9296L4.31838 19.6763L3.42341 20.9365L3.05326 21.7135L2.96516 22.3979L3.94798 22.2877L5.05237 22.3381L6.53538 22.5785L7.95661 22.9659L9.36398 23.4023L8.54462 24.1408L7.62932 25.0856L6.72801 26.345L6.13459 27.6144L5.64706 29.0565L5.43677 30.6716L5.48468 31.9674L5.75298 32.9558L6.7969 31.6492L7.85756 30.5388L8.96722 29.7468L10.1798 29.1545L11.3911 28.5581L13.2107 27.9394L14.3845 30.0359L15.3051 32.7138L16.3636 35.4174L17.0346 38.7454L17.8888 43.3866L18.4086 46.3683L18.4089 46.3704L18.7867 49.1884L18.8634 51.2748L19.7809 51.7798L20.8333 51.9856L21.7982 51.3555L22.3893 51.8974L25.0217 52.1745L25.118 47.5068L25.3734 43.7384L25.3735 43.7363L25.4598 41.9287L25.9057 39.1469L26.6067 35.8881L26.6071 35.8868L27.2016 33.4487L27.2018 33.4476L28.1574 29.7125L28.1577 29.7113L28.7515 27.2704L29.615 24.6743L30.4835 22.246L31.2618 20.4176L32.0196 20.452L32.6133 20.8275L33.9267 22.7153L34.8122 24.406L35.7039 26.2618L36.4775 28.61L36.9799 31.0859L37.3019 32.9476L37.9831 32.4171L38.6183 31.4799L39.3639 29.5622L39.576 28.1103L39.6892 23.5219L40.5209 24.1432L42.3755 26.044L43.8115 27.9166L44.5587 28.6713L44.8765 27.3665L44.6573 25.0796L44.1653 22.7733L43.4264 21.1104L42.4056 19.263L41.4637 17.7952L43.3473 17.3532L44.8467 17.0914L46.2176 16.9884L47.6107 17.0517L47.1904 15.6941Z" fill="#8D8F4E" stroke="#8D8F4E"/>
</svg>
