<svg width="24" height="31" viewBox="0 0 24 31" fill="none" xmlns="http://www.w3.org/2000/svg">
<path d="M12 16.007C10.4178 16.007 8.87104 15.5376 7.55544 14.6582C6.23985 13.7787 5.21447 12.5288 4.60897 11.0663C4.00347 9.60387 3.84504 7.99463 4.15372 6.4421C4.4624 4.88957 5.22433 3.46349 6.34315 2.34418C7.46197 1.22487 8.88743 0.462606 10.4393 0.153789C11.9911 -0.155028 13.5997 0.00346777 15.0615 0.609234C16.5233 1.215 17.7727 2.24083 18.6518 3.557C19.5308 4.87317 20 6.42056 20 8.00351C20 10.1262 19.1572 12.1619 17.6569 13.6628C16.1566 15.1638 14.1217 16.007 12 16.007ZM12 2.00088C10.8133 2.00088 9.65328 2.35293 8.66658 3.0125C7.67989 3.67208 6.91085 4.60956 6.45673 5.7064C6.0026 6.80324 5.88378 8.01017 6.11529 9.17456C6.3468 10.339 6.91825 11.4085 7.75736 12.248C8.59648 13.0875 9.66558 13.6592 10.8295 13.8908C11.9933 14.1224 13.1997 14.0035 14.2961 13.5492C15.3925 13.0949 16.3295 12.3255 16.9888 11.3384C17.6481 10.3513 18 9.19071 18 8.00351C18 6.41151 17.3679 4.88472 16.2426 3.75901C15.1174 2.6333 13.5913 2.00088 12 2.00088Z" fill="white"/>
<path d="M19 30.0131H5C3.67392 30.0131 2.40215 29.4861 1.46447 28.548C0.526784 27.6099 0 26.3376 0 25.0109V21.0092C3.02676e-05 20.8355 0.0452234 20.6649 0.131136 20.5141C0.217048 20.3632 0.340723 20.2373 0.49 20.1488L5.49 17.1475C5.71559 17.0455 5.97098 17.0308 6.20675 17.1063C6.44252 17.1818 6.64191 17.3422 6.76634 17.5563C6.89077 17.7704 6.93139 18.0231 6.88035 18.2654C6.8293 18.5078 6.69021 18.7225 6.49 18.8682L2 21.5794V25.0109C2 25.8069 2.31607 26.5703 2.87868 27.1332C3.44129 27.696 4.20435 28.0122 5 28.0122H19C19.7956 28.0122 20.5587 27.696 21.1213 27.1332C21.6839 26.5703 22 25.8069 22 25.0109V21.5794L17.49 18.8682C17.3625 18.8106 17.2485 18.7268 17.1554 18.6223C17.0623 18.5178 16.9921 18.3949 16.9495 18.2616C16.9068 18.1283 16.8926 17.9875 16.9077 17.8483C16.9228 17.7092 16.967 17.5747 17.0373 17.4537C17.1077 17.3327 17.2026 17.2278 17.316 17.1458C17.4294 17.0638 17.5587 17.0065 17.6956 16.9776C17.8326 16.9488 17.974 16.949 18.1108 16.9782C18.2477 17.0075 18.3768 17.0651 18.49 17.1475L23.49 20.1488C23.643 20.2348 23.7707 20.3596 23.8602 20.5106C23.9497 20.6616 23.9979 20.8336 24 21.0092V25.0109C24 26.3376 23.4732 27.6099 22.5355 28.548C21.5979 29.4861 20.3261 30.0131 19 30.0131Z" fill="white"/>
</svg>
